<?xml version="1.0"?>
<svg xmlns="http://www.w3.org/2000/svg" xmlns:xlink="http://www.w3.org/1999/xlink" xmlns:svgjs="http://svgjs.com/svgjs" version="1.1" width="512" height="512" x="0" y="0" viewBox="0 0 512 512" style="enable-background:new 0 0 512 512" xml:space="preserve" class=""><g>
<g xmlns="http://www.w3.org/2000/svg">
	<g>
		<path d="M432,176c0-13.408-1.44-26.464-4.256-38.752c-0.064-0.32-0.16-0.64-0.256-0.96L399.584,12.48    C397.984,5.184,391.456,0,384,0H128c-7.488,0-13.984,5.184-15.616,12.48L84.512,136.224c-0.096,0.32-0.192,0.672-0.256,1.024    C81.408,149.536,80,162.592,80,176c0,91.648,70.432,167.072,160,175.2V480h-64c-8.832,0-16,7.168-16,16c0,8.832,7.168,16,16,16    h160c8.832,0,16-7.168,16-16c0-8.832-7.168-16-16-16h-64V351.2C361.568,343.072,432,267.648,432,176z M113.696,160    c0.544-4.928,0.512-10.08,1.536-14.72c0.096-0.352,0.192-0.704,0.288-1.088L140.8,32h230.432l25.28,112.192    c0.064,0.32,0.16,0.672,0.256,0.992c1.024,4.704,0.992,9.888,1.536,14.816H113.696z" fill="#ffffff" data-original="#000000" style="" class=""/>
	</g>
</g>
<g xmlns="http://www.w3.org/2000/svg">
</g>
<g xmlns="http://www.w3.org/2000/svg">
</g>
<g xmlns="http://www.w3.org/2000/svg">
</g>
<g xmlns="http://www.w3.org/2000/svg">
</g>
<g xmlns="http://www.w3.org/2000/svg">
</g>
<g xmlns="http://www.w3.org/2000/svg">
</g>
<g xmlns="http://www.w3.org/2000/svg">
</g>
<g xmlns="http://www.w3.org/2000/svg">
</g>
<g xmlns="http://www.w3.org/2000/svg">
</g>
<g xmlns="http://www.w3.org/2000/svg">
</g>
<g xmlns="http://www.w3.org/2000/svg">
</g>
<g xmlns="http://www.w3.org/2000/svg">
</g>
<g xmlns="http://www.w3.org/2000/svg">
</g>
<g xmlns="http://www.w3.org/2000/svg">
</g>
<g xmlns="http://www.w3.org/2000/svg">
</g>
</g></svg>
